<svg width="1200" height="782" viewBox="0 0 1200 782" fill="none" xmlns="http://www.w3.org/2000/svg">
<g clip-path="url(#clip0_1078_8352)">
<rect width="1200" height="782" fill="url(#paint0_linear_1078_8352)"/>
<ellipse cx="1044.05" cy="2.47727" rx="3.04852" ry="3.15909" fill="#D6F0EB"/>
<ellipse cx="1114.77" cy="2.47727" rx="3.04852" ry="3.15909" fill="#D6F0EB"/>
<ellipse cx="1079.41" cy="2.47727" rx="3.04852" ry="3.15909" fill="#D6F0EB"/>
<ellipse cx="1150.14" cy="2.47727" rx="3.04852" ry="3.15909" fill="#D6F0EB"/>
<ellipse cx="1185.5" cy="2.47727" rx="3.04852" ry="3.15909" fill="#D6F0EB"/>
<ellipse cx="1044.05" cy="63.1136" rx="3.04852" ry="3.15909" fill="#D6F0EB"/>
<ellipse cx="1114.77" cy="63.1136" rx="3.04852" ry="3.15909" fill="#D6F0EB"/>
<ellipse cx="1079.41" cy="63.1136" rx="3.04852" ry="3.15909" fill="#D6F0EB"/>
<ellipse cx="1150.14" cy="63.1136" rx="3.04852" ry="3.15909" fill="#D6F0EB"/>
<ellipse cx="1185.5" cy="63.1136" rx="3.04852" ry="3.15909" fill="#D6F0EB"/>
<ellipse cx="1044.05" cy="32.7954" rx="3.04852" ry="3.15909" fill="#D6F0EB"/>
<ellipse cx="1114.77" cy="32.7954" rx="3.04852" ry="3.15909" fill="#D6F0EB"/>
<ellipse cx="1079.41" cy="32.7954" rx="3.04852" ry="3.15909" fill="#D6F0EB"/>
<ellipse cx="1150.14" cy="32.7954" rx="3.04852" ry="3.15909" fill="#D6F0EB"/>
<ellipse cx="1185.5" cy="32.7954" rx="3.04852" ry="3.15909" fill="#D6F0EB"/>
<ellipse cx="1044.05" cy="123.75" rx="3.04852" ry="3.15909" fill="#84D3C2"/>
<ellipse cx="1114.77" cy="123.75" rx="3.04852" ry="3.15909" fill="#84D3C2"/>
<ellipse cx="1079.41" cy="123.75" rx="3.04852" ry="3.15909" fill="#84D3C2"/>
<ellipse cx="1150.14" cy="123.75" rx="3.04852" ry="3.15909" fill="#84D3C2"/>
<ellipse cx="1185.5" cy="123.75" rx="3.04852" ry="3.15909" fill="#84D3C2"/>
<ellipse cx="1044.05" cy="93.4318" rx="3.04852" ry="3.15909" fill="#D6F0EB"/>
<ellipse cx="1114.77" cy="93.4318" rx="3.04852" ry="3.15909" fill="#D6F0EB"/>
<ellipse cx="1079.41" cy="93.4318" rx="3.04852" ry="3.15909" fill="#D6F0EB"/>
<ellipse cx="1150.14" cy="93.4318" rx="3.04852" ry="3.15909" fill="#D6F0EB"/>
<ellipse cx="1185.5" cy="93.4318" rx="3.04852" ry="3.15909" fill="#D6F0EB"/>
<path d="M158.929 438.758L158.384 440.155L158.929 438.758ZM372.079 343.042C372.655 342.445 372.638 341.496 372.042 340.921C371.445 340.345 370.496 340.362 369.921 340.958L372.079 343.042ZM-5.4028 541L-3.90874 540.867C-6.4568 512.329 -1.30873 473.273 22.0195 448.337C45.1802 423.581 86.7897 412.236 158.384 440.155L158.929 438.758L159.474 437.36C87.2934 409.212 44.1725 420.267 19.8288 446.288C-4.3474 472.13 -9.47775 512.228 -6.89685 541.133L-5.4028 541ZM158.929 438.758L158.384 440.155C201.074 456.803 233.826 461.241 259.469 457.879C285.15 454.511 303.582 443.333 317.622 428.993C331.627 414.688 341.248 397.248 349.369 381.397C353.445 373.441 357.122 365.927 360.812 359.317C364.502 352.707 368.139 347.125 372.079 343.042L371 342L369.921 340.958C365.706 345.326 361.918 351.181 358.192 357.854C354.467 364.527 350.738 372.145 346.699 380.029C338.59 395.859 329.14 412.94 315.478 426.894C301.851 440.813 284.018 451.634 259.078 454.904C234.1 458.18 201.875 453.896 159.474 437.36L158.929 438.758Z" fill="url(#paint1_linear_1078_8352)"/>
<path d="M-9.4114 530C-14.4665 475.28 10.8493 379.193 152.553 432.604C329.683 499.367 332.85 373.204 365 341" stroke="url(#paint2_linear_1078_8352)" stroke-width="3"/>
<path d="M92.8635 727.129L91.5183 727.793L92.8635 727.129ZM280.38 804.877C281.208 804.898 281.897 804.244 281.918 803.415C281.939 802.587 281.284 801.899 280.456 801.878L280.38 804.877ZM-67.6232 683.506L-66.4534 684.445C-52.2505 666.748 -27.4049 647.875 1.03576 648.157C29.3174 648.438 61.8673 667.692 91.5183 727.793L92.8635 727.129L94.2087 726.465C64.3203 665.883 30.9705 645.454 1.0655 645.157C-28.6804 644.863 -54.3085 664.52 -68.7931 682.567L-67.6232 683.506ZM92.8635 727.129L91.5183 727.793C109.201 763.634 127.399 786.404 145.448 800.354C163.524 814.325 181.384 819.396 198.258 819.947C215.087 820.495 230.887 816.543 244.827 812.573C251.829 810.579 258.31 808.596 264.304 807.131C270.293 805.667 275.66 804.757 280.38 804.877L280.418 803.377L280.456 801.878C275.335 801.748 269.662 802.733 263.591 804.216C257.525 805.699 250.926 807.717 244.005 809.688C230.1 813.648 214.685 817.481 198.356 816.948C182.071 816.417 164.828 811.542 147.282 797.98C129.708 784.397 111.764 762.048 94.2087 726.465L92.8635 727.129Z" fill="url(#paint3_linear_1078_8352)"/>
<path d="M-64.1852 674.274C-36.9837 640.125 32.4014 601.349 92.3299 719.435C167.241 867.044 239.329 797.494 277.547 799.163" stroke="url(#paint4_linear_1078_8352)" stroke-width="3"/>
</g>
<defs>
<linearGradient id="paint0_linear_1078_8352" x1="0" y1="0" x2="127.636" y2="418.413" gradientUnits="userSpaceOnUse">
<stop stop-color="#D6F0EB"/>
<stop offset="1" stop-color="white"/>
</linearGradient>
<linearGradient id="paint1_linear_1078_8352" x1="182.5" y1="342" x2="182.5" y2="541" gradientUnits="userSpaceOnUse">
<stop stop-color="#5BC4AD"/>
<stop offset="1" stop-color="white"/>
</linearGradient>
<linearGradient id="paint2_linear_1078_8352" x1="177.5" y1="341" x2="177.5" y2="530" gradientUnits="userSpaceOnUse">
<stop stop-color="#5BC4AD"/>
<stop offset="1" stop-color="white"/>
</linearGradient>
<linearGradient id="paint3_linear_1078_8352" x1="161.505" y1="686.836" x2="50.9131" y2="799.678" gradientUnits="userSpaceOnUse">
<stop stop-color="#5BC4AD"/>
<stop offset="1" stop-color="white"/>
</linearGradient>
<linearGradient id="paint4_linear_1078_8352" x1="158.991" y1="682.972" x2="53.9986" y2="790.101" gradientUnits="userSpaceOnUse">
<stop stop-color="#5BC4AD"/>
<stop offset="1" stop-color="white"/>
</linearGradient>
<clipPath id="clip0_1078_8352">
<rect width="1200" height="782" fill="white"/>
</clipPath>
</defs>
</svg>
