<svg width="16" height="17" viewBox="0 0 16 17" fill="none" xmlns="http://www.w3.org/2000/svg">
<path fill-rule="evenodd" clip-rule="evenodd" d="M2.5 2.5C2.36739 2.5 2.24021 2.55268 2.14645 2.64645C2.05268 2.74021 2 2.86739 2 3V14C2 14.1326 2.05268 14.2598 2.14645 14.3536C2.24021 14.4473 2.36739 14.5 2.5 14.5H13.5C13.6326 14.5 13.7598 14.4473 13.8536 14.3536C13.9473 14.2598 14 14.1326 14 14V3C14 2.86739 13.9473 2.74021 13.8536 2.64645C13.7598 2.55268 13.6326 2.5 13.5 2.5H2.5ZM7.354 10.854L11.854 6.354L11.147 5.646L7 9.793L4.854 7.646L4.146 8.354L6.646 10.854C6.69245 10.9006 6.74762 10.9375 6.80837 10.9627C6.86911 10.9879 6.93423 11.0009 7 11.0009C7.06577 11.0009 7.13089 10.9879 7.19163 10.9627C7.25238 10.9375 7.30755 10.9006 7.354 10.854Z" fill="#32B599"/>
</svg>
