<svg width="1200" height="914" viewBox="0 0 1200 914" fill="none" xmlns="http://www.w3.org/2000/svg">
<g clip-path="url(#clip0_1078_8315)">
<rect width="1200" height="914" fill="white"/>
<path d="M166.8 572.654L166.096 573.978L166.8 572.654ZM471.224 384.866C471.703 384.19 471.543 383.254 470.866 382.776C470.19 382.297 469.254 382.457 468.776 383.134L471.224 384.866ZM-68.1462 772L-66.6494 771.902C-70.309 716.007 -62.9385 639.261 -29.2694 590.181C-12.4799 565.707 10.8124 548.158 42.5614 543.416C74.363 538.666 114.867 546.733 166.096 573.978L166.8 572.654L167.505 571.329C115.956 543.914 74.7858 535.57 42.1182 540.449C9.39792 545.336 -14.5741 563.457 -31.7433 588.484C-65.9916 638.408 -73.3162 715.995 -69.643 772.098L-68.1462 772ZM166.8 572.654L166.096 573.978C227.085 606.413 273.886 615.064 310.528 608.512C347.211 601.951 373.442 580.203 393.371 552.443C413.277 524.715 426.968 490.892 438.57 460.008C444.382 444.535 449.66 429.829 454.95 416.906C460.242 403.978 465.498 392.96 471.224 384.866L470 384L468.776 383.134C462.843 391.518 457.483 402.798 452.173 415.769C446.861 428.746 441.551 443.541 435.761 458.953C424.159 489.839 410.585 523.322 390.934 550.693C371.307 578.033 345.689 599.176 310 605.558C274.268 611.948 228.171 603.593 167.505 571.329L166.8 572.654Z" fill="url(#paint0_linear_1078_8315)"/>
<path d="M-74.1571 750C-81.396 643.455 -45.1438 456.365 157.776 560.361C411.426 690.355 415.961 444.703 462 382" stroke="url(#paint1_linear_1078_8315)" stroke-width="3"/>
<path d="M870.082 508.453L869.983 509.996L870.082 508.453ZM1240.2 123.638C1240.55 122.847 1240.25 121.949 1239.53 121.632C1238.81 121.316 1237.93 121.7 1237.58 122.492L1240.2 123.638ZM602.313 865.498L603.656 864.804C579.508 805.591 564.001 716.975 595.439 643.228C626.771 569.728 705.071 510.307 869.983 509.996L870.082 508.453L870.182 506.91C704.647 507.223 624.847 566.947 592.799 642.126C560.857 717.056 576.688 806.65 600.97 866.193L602.313 865.498ZM870.082 508.453L869.983 509.996C967.92 509.81 1037.37 491.844 1087.12 463.306C1136.91 434.748 1166.87 395.666 1185.89 353.497C1204.88 311.376 1212.96 266.187 1219.05 225.424C1222.1 205.008 1224.65 185.75 1227.82 168.443C1230.99 151.137 1234.76 135.927 1240.2 123.638L1238.89 123.065L1237.58 122.492C1231.97 135.157 1228.15 150.684 1224.96 168.063C1221.78 185.442 1219.22 204.818 1216.18 225.153C1210.09 265.893 1202.06 310.674 1183.28 352.33C1164.51 393.938 1135 432.441 1085.88 460.616C1036.72 488.811 967.815 506.725 870.182 506.91L870.082 508.453Z" fill="url(#paint2_linear_1078_8315)"/>
<path d="M585.64 844.523C539.18 731.704 527.56 504.804 852.761 499.753C1259.26 493.439 1182.47 220.841 1227 124.867" stroke="url(#paint3_linear_1078_8315)" stroke-width="3"/>
</g>
<defs>
<linearGradient id="paint0_linear_1078_8315" x1="200.5" y1="384" x2="200.5" y2="772" gradientUnits="userSpaceOnUse">
<stop stop-color="#5BC4AD"/>
<stop offset="1" stop-color="white"/>
</linearGradient>
<linearGradient id="paint1_linear_1078_8315" x1="193.5" y1="382" x2="193.5" y2="750" gradientUnits="userSpaceOnUse">
<stop stop-color="#5BC4AD"/>
<stop offset="1" stop-color="white"/>
</linearGradient>
<linearGradient id="paint2_linear_1078_8315" x1="854.235" y1="281.368" x2="1023.32" y2="692.235" gradientUnits="userSpaceOnUse">
<stop stop-color="#5BC4AD"/>
<stop offset="1" stop-color="white"/>
</linearGradient>
<linearGradient id="paint3_linear_1078_8315" x1="843.345" y1="282.756" x2="1003.73" y2="672.463" gradientUnits="userSpaceOnUse">
<stop stop-color="#5BC4AD"/>
<stop offset="1" stop-color="white"/>
</linearGradient>
<clipPath id="clip0_1078_8315">
<rect width="1200" height="914" fill="white"/>
</clipPath>
</defs>
</svg>
