<svg width="1200" height="731" viewBox="0 0 1200 731" fill="none" xmlns="http://www.w3.org/2000/svg">
<g clip-path="url(#clip0_1078_8496)">
<rect width="1200" height="731" fill="#FDFDFD"/>
<path d="M98.5 141L95.2445 151.019L84.7097 151.019L93.2326 157.211L89.9771 167.231L98.5 161.039L107.023 167.231L103.767 157.211L112.29 151.019L101.755 151.019L98.5 141Z" fill="#32B599"/>
<path d="M232.5 674L229.245 684.019L218.71 684.019L227.233 690.211L223.977 700.231L232.5 694.039L241.023 700.231L237.767 690.211L246.29 684.019L235.755 684.019L232.5 674Z" fill="#171725"/>
<path d="M113.5 674L110.245 684.019L99.7097 684.019L108.233 690.211L104.977 700.231L113.5 694.039L122.023 700.231L118.767 690.211L127.29 684.019L116.755 684.019L113.5 674Z" fill="#171725"/>
<path d="M31.5 604L28.2445 614.019L17.7097 614.019L26.2326 620.211L22.9771 630.231L31.5 624.039L40.0229 630.231L36.7674 620.211L45.2903 614.019L34.7555 614.019L31.5 604Z" fill="#171725"/>
<path d="M935.5 28L932.245 38.0193L921.71 38.0193L930.233 44.2115L926.977 54.2307L935.5 48.0385L944.023 54.2307L940.767 44.2115L949.29 38.0193L938.755 38.0193L935.5 28Z" fill="#32B599"/>
<path d="M973.5 57L970.245 67.0193L959.71 67.0193L968.233 73.2115L964.977 83.2307L973.5 77.0385L982.023 83.2307L978.767 73.2115L987.29 67.0193L976.755 67.0193L973.5 57Z" fill="#32B599"/>
</g>
<defs>
<clipPath id="clip0_1078_8496">
<rect width="1200" height="731" fill="white"/>
</clipPath>
</defs>
</svg>
