<svg width="16" height="16" viewBox="0 0 16 16" fill="none" xmlns="http://www.w3.org/2000/svg">
<path d="M10.7933 1.3335H5.20668C2.78001 1.3335 1.33334 2.78016 1.33334 5.20683V10.7868C1.33334 13.2202 2.78001 14.6668 5.20668 14.6668H10.7867C13.2133 14.6668 14.66 13.2202 14.66 10.7935V5.20683C14.6667 2.78016 13.22 1.3335 10.7933 1.3335ZM8.00001 10.5868C6.57334 10.5868 5.41334 9.42683 5.41334 8.00016C5.41334 6.5735 6.57334 5.4135 8.00001 5.4135C9.42668 5.4135 10.5867 6.5735 10.5867 8.00016C10.5867 9.42683 9.42668 10.5868 8.00001 10.5868ZM11.9467 4.58683C11.9133 4.66683 11.8667 4.74016 11.8067 4.80683C11.74 4.86683 11.6667 4.9135 11.5867 4.94683C11.5067 4.98016 11.42 5.00016 11.3333 5.00016C11.1533 5.00016 10.9867 4.9335 10.86 4.80683C10.8 4.74016 10.7533 4.66683 10.72 4.58683C10.6867 4.50683 10.6667 4.42016 10.6667 4.3335C10.6667 4.24683 10.6867 4.16016 10.72 4.08016C10.7533 3.9935 10.8 3.92683 10.86 3.86016C11.0133 3.70683 11.2467 3.6335 11.46 3.68016C11.5067 3.68683 11.5467 3.70016 11.5867 3.72016C11.6267 3.7335 11.6667 3.7535 11.7067 3.78016C11.74 3.80016 11.7733 3.8335 11.8067 3.86016C11.8667 3.92683 11.9133 3.9935 11.9467 4.08016C11.98 4.16016 12 4.24683 12 4.3335C12 4.42016 11.98 4.50683 11.9467 4.58683Z" fill="#32B599"/>
</svg>
